<svg width="19" height="18" viewBox="0 0 19 18" fill="none" xmlns="http://www.w3.org/2000/svg">
<path d="M17.4168 6.26937H14.9403L14.4126 3.08847C14.3062 2.60719 14.0727 2.16395 13.7367 1.80581C13.4008 1.44766 12.9749 1.18798 12.5045 1.05433C12.0318 0.900915 11.5394 0.818126 11.0429 0.808594H8.01163C7.51518 0.818126 7.02279 0.900915 6.55011 1.05433C6.07963 1.18798 5.65381 1.44766 5.31785 1.80581C4.9819 2.16395 4.74835 2.60719 4.64201 3.08847L4.11424 6.26937H1.63777C1.53118 6.26872 1.42595 6.29348 1.33065 6.34163C1.23535 6.38978 1.15267 6.45997 1.08936 6.54647C1.02604 6.63296 0.983876 6.73333 0.966297 6.83938C0.948718 6.94543 0.956224 7.05418 0.988202 7.15675L3.53233 15.7575C3.66186 16.173 3.91933 16.536 4.26733 16.7938C4.61534 17.0515 5.03575 17.1907 5.4675 17.1909H13.5871C14.0165 17.1878 14.4339 17.0473 14.7792 16.7897C15.1245 16.5322 15.3799 16.1708 15.5087 15.7575L18.0528 7.15675C18.0845 7.05527 18.0922 6.94774 18.0753 6.84273C18.0584 6.73772 18.0175 6.63814 17.9557 6.55194C17.8939 6.46574 17.813 6.39529 17.7194 6.34623C17.6259 6.29717 17.5222 6.27085 17.4168 6.26937ZM5.49456 6.26937L5.98174 3.3069C6.03514 3.06502 6.15903 2.84478 6.33748 2.67449C6.51593 2.50419 6.74079 2.39163 6.98315 2.35126C7.31605 2.24478 7.66249 2.18608 8.01163 2.17379H11.0429C11.3961 2.18471 11.7466 2.24341 12.0849 2.35126C12.3273 2.39163 12.5522 2.50419 12.7306 2.67449C12.9091 2.84478 13.033 3.06502 13.0864 3.3069L13.56 6.26937H5.44043H5.49456Z" fill="white"/>
</svg>
