<svg width="28" height="18" viewBox="0 0 28 18" fill="none" xmlns="http://www.w3.org/2000/svg">
<path d="M0.105392 9.25832C0.105392 13.9185 3.8451 17.6953 8.44597 17.6953C10.084 17.6953 11.6919 17.1958 13.0529 16.2881C8.66277 12.6758 8.69288 5.85915 13.0529 2.24677C11.6919 1.33302 10.084 0.839588 8.44597 0.839588C3.8451 0.833496 0.105392 4.61644 0.105392 9.25832ZM13.5949 15.8861C17.8404 12.5357 17.8224 6.00535 13.5949 2.63664C9.36735 6.00535 9.34929 12.5417 13.5949 15.8861ZM27.0843 9.25832C27.0843 4.61644 23.3446 0.833496 18.7437 0.833496C17.1057 0.833496 15.4978 1.33302 14.1368 2.24068C18.4788 5.85306 18.545 12.6879 14.1368 16.282C15.4978 17.1958 17.1178 17.6892 18.7437 17.6892C23.3446 17.6953 27.0843 13.9185 27.0843 9.25832Z" fill="#999999"/>
</svg>
