<svg width="46" height="42" viewBox="0 0 46 42" fill="none" xmlns="http://www.w3.org/2000/svg">
<circle cx="20.5" cy="21.5" r="2.5" fill="#5C5C5C"/>
<circle cx="20.5" cy="21.5" r="0.5" fill="white"/>
<path d="M14.7111 14.2969C14.3227 13.9042 13.6896 13.9006 13.2969 14.2889C12.9042 14.6773 12.9006 15.3104 13.2889 15.7031L14.7111 14.2969ZM13.2889 15.7031L18.2609 20.7311L19.683 19.3248L14.7111 14.2969L13.2889 15.7031Z" fill="#5C5C5C"/>
<path d="M31.1858 12.9084C31.5879 12.5298 31.6069 11.8969 31.2283 11.4949C30.8496 11.0928 30.2168 11.0738 29.8147 11.4524L31.1858 12.9084ZM29.8147 11.4524L20.3144 20.3987L21.6855 21.8547L31.1858 12.9084L29.8147 11.4524Z" fill="#5C5C5C"/>
<path d="M20.4673 40.0354L20.4673 40.0353H20.4646C10.8345 39.6735 3.09531 31.9232 2.6536 22.2237H5.48091C5.96527 22.2237 6.35605 21.8279 6.35605 21.342C6.35605 20.8561 5.96527 20.4603 5.48091 20.4603H2.65354C3.08784 10.8221 10.7375 3.10611 20.289 2.6678V4.76704C20.289 5.25291 20.6797 5.64877 21.1641 5.64877C21.6485 5.64877 22.0392 5.25291 22.0392 4.76704V2.66784C31.3899 3.0997 38.941 10.508 39.648 19.9047L36.9773 17.2104L36.9757 17.2088C36.6279 16.8699 36.0733 16.8797 35.7374 17.2304L35.8301 17.3192L35.7374 17.2305C35.4104 17.572 35.4104 18.1131 35.7374 18.4548L35.739 18.4564L39.9036 22.6578C39.9952 22.768 40.1126 22.8535 40.2452 22.9069L40.2451 22.9073L40.2559 22.9106C40.2861 22.9198 40.3168 22.9275 40.348 22.9338C40.405 22.9538 40.464 22.9677 40.5241 22.9754L40.5322 22.9764H40.5403H40.5403H40.5404H40.5404H40.5405H40.5405H40.5406H40.5406H40.5407H40.5407H40.5407H40.5408H40.5408H40.5409H40.5409H40.541H40.541H40.541H40.5411H40.5411H40.5412H40.5412H40.5413H40.5413H40.5414H40.5414H40.5414H40.5415H40.5415H40.5416H40.5416H40.5417H40.5417H40.5417H40.5418H40.5418H40.5419H40.5419H40.542H40.542H40.542H40.5421H40.5421H40.5422H40.5422H40.5423H40.5423H40.5423H40.5424H40.5424H40.5425H40.5425H40.5426H40.5426H40.5426H40.5427H40.5427H40.5428H40.5428H40.5429H40.5429H40.5429H40.543H40.543H40.5431H40.5431H40.5432H40.5432H40.5432H40.5433H40.5433H40.5434H40.5434H40.5435H40.5435H40.5435H40.5436H40.5436H40.5437H40.5437H40.5438H40.5438H40.5438H40.5439H40.5439H40.544H40.544H40.5441H40.5441H40.5441H40.5442H40.5442H40.5443H40.5443H40.5444H40.5444H40.5444H40.5445H40.5445H40.5446H40.5446H40.5447H40.5447H40.5447H40.5448H40.5448H40.5449H40.5449H40.5449H40.545H40.545H40.5451H40.5451H40.5452H40.5452H40.5452H40.5453H40.5453H40.5454H40.5454H40.5455H40.5455H40.5455H40.5456H40.5456H40.5457H40.5457H40.5457H40.5458H40.5458H40.5459H40.5459H40.546H40.546H40.546H40.5461H40.5461H40.5462H40.5462H40.5463H40.5463H40.5463H40.5464H40.5464H40.5465H40.5465H40.5465H40.5466H40.5466H40.5467H40.5467H40.5468H40.5468H40.5468H40.5469H40.5469H40.547H40.547H40.5471H40.5471H40.5471H40.5472H40.5472H40.5473H40.5473H40.5473H40.5474H40.5474H40.5475H40.5475H40.5476H40.5476H40.5476H40.5477H40.5477H40.5478H40.5478H40.5478H40.5479H40.5479H40.548H40.548H40.5481H40.5481H40.5481H40.5482H40.5482H40.5483H40.5483H40.5483H40.5484H40.5484H40.5485H40.5485H40.5486H40.5486H40.5486H40.5487H40.5487H40.5488H40.5488H40.5488H40.5489H40.5489H40.549H40.549H40.5491H40.5491H40.5491H40.5492H40.5492H40.5493H40.5493H40.5493H40.5494H40.5494H40.5495H40.5495H40.5496H40.5496H40.5496H40.5497H40.5497H40.5498H40.5498H40.5498H40.5499H40.5499H40.55H40.55H40.5501H40.5501H40.5501H40.5502H40.5502H40.5503H40.5503H40.5503H40.5504H40.5504H40.5505H40.5505H40.5506H40.5506H40.5506H40.5507H40.5507H40.5508H40.5508H40.5508H40.5509H40.5509H40.551H40.551H40.5511H40.5511H40.5511H40.5512H40.5512H40.5513H40.5513H40.5513H40.5514H40.5514H40.5515H40.5515H40.5515H40.5516H40.5516H40.5517H40.5517H40.5518H40.5518H40.5518H40.5519H40.5519H40.552H40.552H40.552H40.5521H40.5521H40.5522H40.5522H40.5523H40.5523H40.5523H40.5524H40.5524H40.5525H40.5525H40.5525H40.5526H40.5526H40.5527H40.5527H40.5528H40.5528H40.5528H40.5529H40.5529H40.553H40.553H40.553H40.5531H40.5531H40.5532H40.5532H40.5533H40.5533H40.5533H40.5534H40.5534H40.5535H40.5535H40.5535H40.5536H40.5536H40.5537H40.5537H40.5538H40.5538H40.5538H40.5539H40.5539H40.554H40.554H40.554H40.5541H40.5541H40.5542H40.5542H40.5543H40.5543H40.5543H40.5544H40.5544H40.5545H40.5545H40.5546H40.5546H40.5546H40.5547H40.5547H40.5548H40.5548H40.5548H40.5549H40.5549H40.555H40.555H40.555H40.5551H40.5551H40.5552H40.5552H40.5553H40.5553H40.5553H40.5554H40.5554H40.5555H40.5555H40.5556H40.5556H40.5556H40.5557H40.5557H40.5558H40.5558H40.5558H40.5559H40.5559H40.556H40.556H40.5561H40.5561H40.5561H40.5562H40.5562H40.5563H40.5563H40.5564H40.5564H40.5564H40.5565H40.5565H40.5566H40.5566H40.5566H40.5567H40.5567H40.5568H40.5568H40.5569H40.5569H40.5569H40.557H40.557H40.5571H40.5571H40.5572H40.5572H40.5572H40.5573H40.5573H40.5574H40.5574H40.5574H40.5575H40.5575H40.5576H40.5576H40.5577H40.5577H40.5577H40.5578H40.5578H40.5579H40.5579H40.558H40.558H40.558H40.5581H40.5581H40.5582H40.5582H40.5583H40.5583H40.5583H40.5584H40.5584H40.5585H40.5585H40.5586H40.5586H40.5586H40.5587H40.5587H40.5588H40.5588H40.5589H40.5589H40.5589H40.559H40.559H40.5591H40.5591H40.5592H40.5592H40.5592H40.5593H40.5593H40.5594H40.5594H40.5595H40.5595H40.5595H40.5596H40.5596H40.5597H40.5597H40.5597H40.5598H40.5598H40.5599H40.5599H40.56H40.56H40.5601H40.5601H40.5601H40.5602H40.5602H40.5603H40.5603H40.5604H40.5604H40.5604H40.5605H40.5605H40.5606H40.5606H40.5607H40.5607H40.5607H40.5608H40.5608H40.5609H40.5609H40.561H40.561H40.561H40.5611H40.5611H40.5612H40.5612H40.5613H40.5613H40.5614H40.5614H40.5614H40.5615H40.5615H40.5616H40.5616H40.5617H40.5617H40.5617H40.5618H40.5618H40.5619H40.5619H40.562H40.562H40.562H40.5621H40.5621H40.5622H40.5622H40.5623H40.5623H40.5624H40.5624H40.5624H40.5625H40.5625H40.5626H40.5626H40.5627H40.5627H40.5627H40.5628H40.5628H40.5629H40.5629H40.563H40.563H40.563H40.5631H40.5631H40.5632H40.5632H40.5633H40.5633H40.5634H40.5634H40.5634H40.5635H40.5635H40.5636H40.5636H40.5637H40.5637H40.5637H40.5638H40.5638H40.5639H40.5639H40.564H40.564H40.564H40.5641H40.5641H40.5642H40.5642H40.5643H40.5643H40.5643H40.5644H40.5644H40.5645H40.5645H40.5646H40.5646H40.5646H40.5647H40.5647H40.5648H40.5648H40.5649H40.5649H40.5649H40.565H40.565H40.5651H40.5651H40.5652H40.5652H40.5652H40.5653H40.5653H40.5654H40.5654H40.5655H40.5655H40.5655H40.5656H40.5656H40.5657H40.5657H40.5658H40.5658H40.5658H40.5659H40.5659H40.566H40.566H40.566H40.5661H40.5661H40.5662H40.5662H40.5663H40.5663H40.5663H40.5664H40.5664H40.5665H40.5665H40.5666H40.5666H40.5666H40.5667H40.5667H40.5668H40.5668H40.5668H40.5669H40.5669H40.567H40.567H40.5671H40.5671H40.5671H40.5672H40.5672H40.5673H40.5673H40.5674H40.5674H40.5674H40.5675H40.5675H40.5676H40.5676H40.5676H40.5677H40.5677H40.5678H40.5678H40.5679H40.5679H40.5679H40.568H40.568H40.5681H40.5681H40.5681H40.5682H40.5682H40.5683H40.5683H40.5684H40.5684H40.5684H40.5685H40.5685H40.5686H40.5686H40.5686H40.5687H40.5687H40.5688H40.5688H40.5689H40.5689H40.5689H40.569H40.569H40.5691H40.5691H40.5691H40.5692H40.5692H40.5693H40.5693H40.5693H40.5694H40.5694H40.5695H40.5695H40.5696H40.5696H40.5696H40.5697H40.5697H40.5698H40.5698H40.5698H40.5699H40.5699H40.57H40.57H40.57H40.5701H40.5701H40.5702H40.5702H40.5703H40.5703H40.5703H40.5704H40.5704H40.5705H40.5705H40.5705H40.5706H40.5706H40.5707H40.5707H40.5707H40.5708H40.5708H40.5709H40.5709H40.5709H40.571H40.571H40.5711H40.5711H40.5712H40.5712H40.5712H40.5713H40.5713H40.5714H40.5714H40.5714H40.5715H40.5715H40.5716H40.5716H40.5716H40.5717H40.5717H40.5718H40.5718H40.5718H40.5719H40.5719H40.572H40.572H40.572H40.5721H40.5721H40.5722H40.5722H40.5723H40.5723H40.5723H40.5724H40.5724H40.5725H40.5725H40.5725H40.5726H40.5726H40.5727H40.5727H40.5727H40.5728H40.5728H40.5729H40.5729H40.5729H40.573H40.573H40.5731H40.5731H40.5731H40.5732H40.5732H40.5733H40.5733H40.5733H40.5734H40.5734H40.5735H40.5735H40.5735H40.5736H40.5736H40.5737H40.5737H40.5737H40.5738H40.5738H40.5739H40.5739H40.5739H40.574H40.574H40.5741H40.5741H40.5742H40.5742H40.5742H40.5743H40.5743H40.5744H40.5744H40.5744H40.5745H40.5745H40.5746H40.5746H40.5746H40.5747H40.5747H40.5748H40.5748H40.5748H40.5749H40.5749H40.575H40.575H40.575H40.5751H40.5751H40.5752H40.5752H40.5752H40.5753H40.5753H40.5754H40.5754H40.5754H40.5755H40.5755H40.5756H40.5756H40.5756H40.5757H40.5757H40.5758H40.5758H40.5758H40.5759H40.5759H40.576H40.576H40.576H40.5761H40.5761H40.5762H40.5762H40.5762H40.5763H40.5763H40.5764H40.5764H40.5764H40.5765H40.5765H40.5765H40.5766H40.5766H40.5767H40.5767H40.5767H40.5768H40.5768H40.5769H40.5769H40.5769H40.577H40.577H40.5771H40.5771H40.5771H40.5772H40.5772H40.5773H40.5773H40.5773H40.5774H40.5774H40.5775H40.5775H40.5775H40.5776H40.5776H40.5777H40.5777H40.5777H40.5778H40.5778H40.5779H40.5779H40.5779H40.578H40.578H40.5781H40.5781H40.5781H40.5782H40.5782H40.5783H40.5783H40.5783H40.5784H40.5784H40.5785H40.5785H40.5785H40.5786H40.5786H40.5787H40.5787H40.5787H40.5788H40.5788H40.5788H40.5789H40.5789H40.579H40.579H40.579H40.5791H40.5791H40.5792H40.5792H40.5792H40.5793H40.5793H40.5794H40.5794H40.5794H40.5795H40.5795H40.5796H40.5796H40.5796H40.5797H40.5797H40.5798H40.5798H40.5798H40.5799H40.5799H40.58H40.58H40.58H40.5801H40.5801H40.5802H40.5802H40.5802H40.5803H40.5803H40.5804H40.5804H40.5804H40.5805H40.5805H40.5806H40.5806H40.5806H40.5807H40.5807H40.5807H40.5808H40.5808H40.5809H40.5809H40.5809H40.581H40.581H40.5811H40.5811H40.5811H40.5812H40.5812H40.5813H40.5813H40.5813H40.5814H40.5814H40.5815H40.5815H40.5815H40.5816H40.5816H40.5817H40.5817H40.5817H40.5818H40.5818H40.5819H40.5819H40.5819H40.582H40.582H40.582H40.5821H40.5821H40.5822H40.5822H40.5822H40.5823H40.5823H40.5824H40.5824H40.5824H40.5825H40.5825H40.5826H40.5826H40.5826H40.5827H40.5827H40.5828H40.5828H40.5828H40.5829V22.9768L40.5926 22.976C40.6555 22.9712 40.7178 22.9594 40.7781 22.9407C40.8102 22.9363 40.8421 22.93 40.8737 22.9218L40.8738 22.9223L40.8846 22.9184C41.0034 22.8758 41.1115 22.8075 41.2013 22.7184L41.202 22.7177L45.4275 18.4564L45.4291 18.4548C45.7642 18.1047 45.7548 17.5471 45.4076 17.2088L45.3181 17.3007L45.4076 17.2088C45.0684 16.8783 44.5301 16.8783 44.1908 17.2088L44.1893 17.2104L41.4072 20.0148C40.7291 9.28983 31.9148 0.903721 21.2281 0.882246C21.2277 0.882154 21.2274 0.882056 21.227 0.88195L21.2257 0.88155C21.217 0.878947 21.1928 0.87168 21.1641 0.87168C21.1354 0.87168 21.1112 0.878948 21.1025 0.881551L21.1012 0.881951C21.1008 0.882055 21.1005 0.882153 21.1002 0.882245C9.9415 0.903527 0.902472 10.0244 0.88215 21.279C0.88095 21.2829 0.878404 21.2913 0.876349 21.3006C0.873999 21.3112 0.87168 21.3254 0.87168 21.342C0.87168 21.3705 0.878765 21.3945 0.881342 21.4033L0.881735 21.4046L0.882155 21.4061C0.906235 32.3859 9.52191 41.3896 20.402 41.798L20.402 41.798H20.4068H20.4345C20.9058 41.7979 21.291 41.4223 21.3088 40.9498L21.1805 40.9449L21.3088 40.9498C21.327 40.4642 20.9512 40.0539 20.4673 40.0354Z" fill="#5C5C5C" stroke="#5C5C5C" stroke-width="0.256641"/>
<path d="M28.9107 40.1878H34.9099C35.1469 40.1878 35.3469 40.2688 35.5098 40.4309C35.6728 40.593 35.7542 40.7919 35.7542 41.0276C35.7542 41.2633 35.6728 41.4622 35.5098 41.6243C35.3469 41.7864 35.1469 41.8674 34.9099 41.8674H27.2443C26.874 41.8674 26.5999 41.7864 26.4222 41.6243C26.2592 41.4622 26.1778 41.2781 26.1778 41.0718C26.1778 40.8803 26.3185 40.5856 26.5999 40.1878L32.0658 32.9171C32.8361 31.8858 33.2212 30.9576 33.2212 30.1326C33.2212 29.4254 32.9768 28.8435 32.488 28.3867C32.014 27.9153 31.4215 27.6796 30.7105 27.6796C29.8069 27.6796 29.0959 28.0184 28.5774 28.6961C28.0738 29.3591 27.822 30.2063 27.822 31.2376C27.822 31.8269 27.5331 32.1215 26.9554 32.1215C26.3185 32.1215 26 31.7238 26 30.9282C26 29.558 26.4444 28.3941 27.3332 27.4365C28.2367 26.4788 29.4736 26 31.0438 26C32.3028 26 33.3249 26.3904 34.11 27.1713C34.9099 27.9374 35.3098 28.8508 35.3098 29.9116C35.3098 31.1197 34.9469 32.2026 34.2211 33.1602L28.9107 40.1878Z" fill="#5C5C5C"/>
<path d="M42.2005 38.9282H35.8903C35.3273 38.9282 35.0459 38.6998 35.0459 38.2431C35.0459 38.0221 35.2088 37.6464 35.5348 37.116L41.134 26.884C41.4895 26.2947 42.0006 26 42.6671 26C43.6595 26 44.1558 26.5378 44.1558 27.6133V37.2486H45.1557C45.3926 37.2486 45.5926 37.3296 45.7556 37.4917C45.9185 37.6538 46 37.8527 46 38.0884C46 38.3241 45.9185 38.523 45.7556 38.6851C45.5926 38.8472 45.3926 38.9282 45.1557 38.9282H44.1558V40.9613C44.1558 41.2854 44.0669 41.5433 43.8892 41.7348C43.7114 41.9116 43.4743 42 43.1782 42C42.8819 42 42.6449 41.9116 42.4672 41.7348C42.2894 41.5433 42.2005 41.2854 42.2005 40.9613V38.9282ZM37.4901 37.2486H42.2005V28.0773H42.1561L37.4901 37.2486Z" fill="#5C5C5C"/>
</svg>
