<svg width="12" height="25" viewBox="0 0 12 25" fill="none" xmlns="http://www.w3.org/2000/svg">
<path fill-rule="evenodd" clip-rule="evenodd" d="M2.82125 12.584V24.2301C2.82125 24.3106 2.85323 24.3877 2.91014 24.4447C2.96705 24.5016 3.04424 24.5336 3.12473 24.5336H7.44934C7.52983 24.5336 7.60702 24.5016 7.66393 24.4447C7.72085 24.3877 7.75282 24.3106 7.75282 24.2301V12.3753H10.8872C10.9638 12.3756 11.0376 12.3469 11.0938 12.295C11.1501 12.2431 11.1847 12.1719 11.1907 12.0956L11.4942 8.52967C11.4974 8.48787 11.492 8.44585 11.4782 8.40625C11.4645 8.36664 11.4426 8.33032 11.4141 8.29958C11.3856 8.26884 11.351 8.24434 11.3126 8.22763C11.2741 8.21092 11.2326 8.20235 11.1907 8.20248H7.75282V5.67031C7.75282 5.38609 7.86573 5.11351 8.06671 4.91253C8.26768 4.71155 8.54026 4.59865 8.82449 4.59865H11.2429C11.3233 4.59865 11.4005 4.56667 11.4574 4.50976C11.5144 4.45284 11.5463 4.37565 11.5463 4.29517V0.729269C11.5463 0.648781 11.5144 0.571591 11.4574 0.514677C11.4005 0.457763 11.3233 0.425781 11.2429 0.425781H7.16009C6.00936 0.425781 4.90576 0.882916 4.09207 1.6966C3.27838 2.51029 2.82125 3.61388 2.82125 4.76461V8.20248H0.658949C0.578461 8.20248 0.501271 8.23446 0.444358 8.29137C0.387444 8.34829 0.355469 8.42548 0.355469 8.50597V12.0719C0.355469 12.1523 0.387444 12.2295 0.444358 12.2865C0.501271 12.3434 0.578461 12.3753 0.658949 12.3753H2.82125V12.565V12.584Z" fill="#FAFAFA"/>
</svg>
