<svg width="26" height="26" viewBox="0 0 26 26" fill="none" xmlns="http://www.w3.org/2000/svg">
<path d="M19.3807 7.98854C20.1976 7.98854 20.8599 7.34314 20.8599 6.547C20.8599 5.75087 20.1976 5.10547 19.3807 5.10547C18.5637 5.10547 17.9014 5.75087 17.9014 6.547C17.9014 7.34314 18.5637 7.98854 19.3807 7.98854Z" fill="#FAFAFA"/>
<path d="M12.8089 6.95313C11.5814 6.95312 10.3815 7.30783 9.36083 7.97239C8.3402 8.63695 7.54472 9.58152 7.07498 10.6866C6.60523 11.7918 6.48232 13.0078 6.72179 14.181C6.96127 15.3542 7.55237 16.4318 8.42035 17.2777C9.28832 18.1235 10.3942 18.6995 11.5981 18.9329C12.802 19.1662 14.0499 19.0465 15.184 18.5887C16.318 18.131 17.2873 17.3558 17.9693 16.3612C18.6513 15.3666 19.0153 14.1973 19.0153 13.0011C19.014 11.3975 18.3597 9.85983 17.1961 8.72588C16.0324 7.59193 14.4545 6.95435 12.8089 6.95313V6.95313ZM12.8089 16.8729C12.0231 16.8729 11.2549 16.6458 10.6015 16.2204C9.94811 15.795 9.43886 15.1903 9.13814 14.4828C8.83742 13.7753 8.75873 12.9968 8.91204 12.2457C9.06535 11.4947 9.44376 10.8048 9.99942 10.2633C10.5551 9.72184 11.263 9.35308 12.0338 9.20369C12.8045 9.0543 13.6034 9.13097 14.3294 9.42402C15.0554 9.71707 15.6759 10.2133 16.1125 10.85C16.5491 11.4868 16.7821 12.2353 16.7821 13.0011C16.7821 14.0284 16.3637 15.0137 15.6187 15.7405C14.8737 16.4674 13.8631 16.8763 12.8089 16.8775V16.8729Z" fill="#FAFAFA"/>
<path d="M17.7445 25.2785H7.67397C5.66202 25.2785 3.73246 24.4997 2.3098 23.1133C0.88713 21.7269 0.0878906 19.8466 0.0878906 17.886V8.09561C0.0878906 6.135 0.88713 4.25469 2.3098 2.86833C3.73246 1.48197 5.66202 0.703125 7.67397 0.703125H17.7445C19.7564 0.703125 21.686 1.48197 23.1087 2.86833C24.5313 4.25469 25.3306 6.135 25.3306 8.09561V17.8999C25.3268 19.8581 24.5259 21.7348 23.1036 23.1182C21.6814 24.5016 19.754 25.2785 17.7445 25.2785V25.2785ZM7.68345 3.03175C6.30023 3.03175 4.97367 3.56721 3.99558 4.52033C3.0175 5.47345 2.46802 6.76616 2.46802 8.11408V17.9184C2.46802 19.2663 3.0175 20.559 3.99558 21.5121C4.97367 22.4652 6.30023 23.0007 7.68345 23.0007H17.7445C19.1277 23.0007 20.4543 22.4652 21.4323 21.5121C22.4104 20.559 22.9599 19.2663 22.9599 17.9184V8.09561C22.9599 6.74769 22.4104 5.45497 21.4323 4.50185C20.4543 3.54872 19.1277 3.01328 17.7445 3.01328H7.67397L7.68345 3.03175Z" fill="#FAFAFA"/>
</svg>
