<svg width="201" height="42" viewBox="0 0 201 42" fill="none" xmlns="http://www.w3.org/2000/svg">
<path d="M193.673 41.3594C194.008 41.3594 194.28 41.0875 194.28 40.7525V36.5434C194.28 36.2099 194.008 35.9396 193.673 35.9396H188.063C186.751 35.9396 183.285 35.8716 181.374 34.9359C180.751 34.6293 180.279 34.2816 179.971 33.869C179.686 33.4897 179.541 33.0092 179.541 32.4165V1.32021C179.541 0.986703 179.269 0.714844 178.935 0.714844H166.468C166.133 0.714844 165.867 0.986703 165.867 1.32021V31.4255C165.867 33.0155 166.228 34.4934 166.918 35.5176C167.666 36.624 168.807 37.7446 170.317 38.5681C174.943 41.0844 183.339 41.3752 186.521 41.3594H193.673Z" fill="#E30613"/>
<path d="M109.87 0.711756C106.687 0.692789 98.2905 0.985196 93.6657 3.50306C92.1547 4.32496 91.0151 5.44559 90.2659 6.55357C89.5752 7.57779 89.2148 9.05405 89.2148 11.0171V40.9059C89.2148 40.9059 89.4804 41.1777 89.8155 41.1777H102.283C102.618 41.1777 102.888 40.9059 102.888 40.5723V16.9443H110.377C110.711 16.9443 110.983 16.6724 110.983 16.3373V12.1314C110.983 11.7963 110.711 11.5245 110.377 11.5245H102.888V9.65309C102.888 9.06037 103.034 8.58145 103.32 8.20053C103.628 7.78958 104.099 7.44028 104.723 7.13523C106.633 6.19794 110.099 6.13156 111.412 6.13156H117.02C117.357 6.13156 117.629 5.8597 117.629 5.52462V1.31712C117.629 0.982035 117.357 0.711756 117.02 0.711756H109.87Z" fill="#E30613"/>
<path d="M29.1107 41.1791C29.4442 41.1791 29.716 40.9072 29.716 40.5737V6.21668H44.5766C44.9133 6.21668 45.1836 5.94482 45.1836 5.60973V1.40382C45.1836 1.06873 44.9133 0.796875 44.5766 0.796875H1.23878C0.903695 0.796875 0.631836 1.06873 0.631836 1.40382V5.60973C0.631836 5.94482 0.903695 6.21668 1.23878 6.21668H16.0709V40.5737C16.0709 40.9072 16.3412 41.1791 16.6763 41.1791H29.1107Z" fill="#E30613"/>
<path d="M82.8635 41.1768C83.2002 41.1768 83.4705 40.9049 83.4705 40.5698V36.3623C83.4705 36.0273 83.2002 35.7554 82.8635 35.7554H58.9273C57.6122 35.7554 54.146 35.689 52.2367 34.7517C51.6124 34.4467 51.1413 34.0989 50.8331 33.6864C50.547 33.3039 50.4016 32.825 50.4016 32.2354V30.0005H62.61C65.7933 30.0005 74.1893 29.8361 78.8141 27.5696C80.3251 26.8299 81.4663 25.9874 82.2123 24.9901C83.8024 22.8674 83.9415 18.6156 82.2234 16.319C81.4774 15.3217 80.3362 14.4792 78.8252 13.7395C74.2004 11.4714 65.8044 11.3086 62.6211 11.3086H57.383C54.1998 11.3086 45.8037 11.5552 41.1805 13.8233C39.6695 14.5646 38.5283 15.573 37.7807 16.5719C37.09 17.495 36.7344 18.8242 36.7344 20.2578V32.2275C36.7344 33.6611 37.09 34.9904 37.7807 35.9135C38.5283 36.9124 39.6695 37.9208 41.1805 38.6621C45.8037 40.9286 54.1998 41.1926 57.383 41.1768H82.8635ZM69.6009 21.0576C69.6009 21.6503 69.4539 22.1292 69.1678 22.5117C68.8596 22.9243 68.3886 23.2704 67.7643 23.5755C65.8549 24.5112 62.3887 24.5791 61.0737 24.5791H50.3858V19.888C50.3858 19.2968 50.5328 18.8179 50.8173 18.4354C51.1255 18.0245 51.5981 17.6752 52.2209 17.3701C54.1302 16.4344 57.598 16.3664 58.9115 16.3664H61.0737C62.3887 16.3664 65.8549 16.4344 67.7643 17.3701C68.3886 17.6752 68.8596 18.0245 69.1678 18.4354C69.4539 18.8179 69.6009 19.2968 69.6009 19.888V21.0576Z" fill="#E30613"/>
<path d="M157.845 16.7899C157.097 15.791 155.958 14.781 154.445 14.0397C149.822 11.7732 141.426 11.5092 138.242 11.5266L131.702 11.5234L131.699 11.5266H117.334C116.999 11.5266 116.728 11.7985 116.728 12.1335V16.3395C116.728 16.6745 116.999 16.9464 117.334 16.9464H136.698C138.013 16.9464 141.481 17.0144 143.389 17.9501C144.013 18.2551 144.484 18.6028 144.792 19.0154C145.078 19.3963 145.224 19.8768 145.224 20.4679V22.4879H133.015C129.832 22.4879 121.436 22.6523 116.811 24.9188C115.3 25.6585 114.161 26.501 113.412 27.4999C111.714 29.7696 111.703 34.1083 113.4 36.378C114.148 37.377 115.291 38.2178 116.8 38.9591C121.425 41.2272 129.821 41.3885 133.003 41.3885H138.242C141.426 41.3885 149.822 41.1419 154.445 38.8753C155.958 38.1356 157.097 37.1256 157.845 36.1267C158.535 35.2052 158.891 33.8744 158.891 32.4408V20.4742C158.891 19.0422 158.535 17.713 157.845 16.7899ZM145.24 32.8091C145.24 33.4018 145.094 33.8807 144.808 34.2616C144.5 34.6757 144.029 35.0219 143.405 35.3285C141.495 36.2626 138.029 36.3306 136.714 36.3306H134.552C133.237 36.3306 129.769 36.2626 127.86 35.3285C127.237 35.0219 126.766 34.6757 126.458 34.2616C126.172 33.8807 126.026 33.4018 126.026 32.8091V31.4308C126.026 30.8381 126.172 30.3576 126.458 29.9783C126.766 29.5657 127.237 29.218 127.86 28.9114C129.769 27.9757 133.237 27.9093 134.552 27.9093H145.24V32.8091Z" fill="#E30613"/>
<path d="M196.835 3.60767V2.64826H197.541C197.883 2.64826 198.211 2.67197 198.211 3.08924C198.211 3.58871 197.914 3.60767 197.491 3.60767H196.835ZM196.835 4.13559H197.288L198.18 5.55494H198.896L197.93 4.09449C198.556 4.02336 198.829 3.6219 198.829 3.13034C198.829 2.50443 198.455 2.11719 197.729 2.11719H196.217V5.55494H196.835V4.13559Z" fill="#E30613"/>
<path d="M197.418 0.609375C195.643 0.609375 194.209 2.04612 194.209 3.81953C194.209 5.59294 195.643 7.03126 197.418 7.03126C199.191 7.03126 200.631 5.59294 200.631 3.81953C200.631 2.04612 199.191 0.609375 197.418 0.609375ZM197.418 6.42906C195.976 6.42906 194.808 5.26102 194.808 3.81953C194.808 2.37804 195.976 1.20999 197.418 1.20999C198.859 1.20999 200.027 2.37804 200.027 3.81953C200.027 5.26102 198.859 6.42906 197.418 6.42906Z" fill="#E30613"/>
</svg>
