<svg width="14" height="14" viewBox="0 0 14 14" fill="none" xmlns="http://www.w3.org/2000/svg">
<path d="M3.1429 6.09966C4.2152 8.20703 5.94279 9.92717 8.05016 11.0069L9.68839 9.36868C9.88945 9.16763 10.1873 9.10061 10.4479 9.18997C11.2819 9.46549 12.183 9.61442 13.1063 9.61442C13.5159 9.61442 13.851 9.94951 13.851 10.3591V12.9579C13.851 13.3675 13.5159 13.7026 13.1063 13.7026C6.11406 13.7026 0.447266 8.03576 0.447266 1.04348C0.447266 0.633921 0.782359 0.298828 1.19192 0.298828H3.7982C4.20776 0.298828 4.54285 0.633921 4.54285 1.04348C4.54285 1.97429 4.69178 2.86788 4.9673 3.70189C5.04921 3.96251 4.98964 4.25293 4.78114 4.46143L3.1429 6.09966Z" fill="white"/>
</svg>
