<svg width="46" height="14" viewBox="0 0 46 14" fill="none" xmlns="http://www.w3.org/2000/svg">
<path d="M18.0744 0.74414L15.7892 13.8131H19.444L21.7311 0.74414H18.0744Z" fill="#999999"/>
<path d="M12.7248 0.758364L9.1452 9.67103L8.76355 8.32529C8.0576 6.7038 6.05347 4.3751 3.70061 2.90752L6.97375 13.8063L10.841 13.7999L16.5967 0.755615L12.7248 0.758364Z" fill="#999999"/>
<path d="M7.37609 1.69383C7.16365 0.897747 6.54794 0.660479 5.7837 0.63208H0.117268L0.0702667 0.892251C4.4799 1.93476 7.39772 4.44669 8.60846 7.46705L7.37609 1.69383Z" fill="#999999"/>
<path d="M29.1385 3.24973C30.3342 3.23141 31.2009 3.48608 31.8739 3.74992L32.2039 3.90107L32.6983 1.06851C31.9745 0.803764 30.8399 0.519776 29.4242 0.519776C25.8127 0.519776 23.2671 2.29241 23.2474 4.83274C23.2239 6.70981 25.0607 7.75782 26.4481 8.38351C27.8723 9.02478 28.3498 9.43244 28.3432 10.005C28.3319 10.8799 27.2077 11.2811 26.1577 11.2811C24.6941 11.2811 23.9167 11.0842 22.7163 10.5968L22.2453 10.3879L21.7311 13.313C22.5865 13.6785 24.1648 13.9927 25.8033 14.0092C29.6451 14.0092 32.1418 12.2577 32.1681 9.54329C32.1841 8.0583 31.2093 6.92509 29.0971 5.99526C27.8187 5.38881 27.0366 4.98573 27.0441 4.37378C27.0441 3.83053 27.7078 3.24973 29.1385 3.24973Z" fill="#999999"/>
<path d="M42.0778 0.759034H39.254C38.377 0.759034 37.7246 0.991721 37.3392 1.84369L31.9125 13.8207H35.7506C35.7506 13.8207 36.3766 12.2102 36.5186 11.8575C36.9387 11.8575 40.6678 11.863 41.1989 11.863C41.308 12.3192 41.6445 13.8207 41.6445 13.8207H45.0351L42.0778 0.759034ZM37.5704 9.1825C37.8713 8.43222 39.0265 5.53004 39.0265 5.53004C39.0068 5.56577 39.3245 4.77427 39.5135 4.28232L39.7597 5.40912C39.7597 5.40912 40.4601 8.52933 40.6067 9.1825H37.5704Z" fill="#999999"/>
</svg>
