<svg width="24" height="17" viewBox="0 0 24 17" fill="none" xmlns="http://www.w3.org/2000/svg">
<path d="M23.5625 5.0308C23.5625 3.69758 23.0328 2.41897 22.0901 1.47625C21.1474 0.533522 19.8688 0.00390625 18.5356 0.00390625H5.48783C4.15462 0.00390625 2.87601 0.533522 1.93328 1.47625C0.990556 2.41897 0.46094 3.69758 0.46094 5.0308V11.1434C0.460333 11.804 0.589908 12.4582 0.842261 13.0686C1.09461 13.679 1.46479 14.2337 1.93165 14.701C2.3985 15.1683 2.95286 15.539 3.56305 15.7919C4.17324 16.0448 4.8273 16.175 5.48783 16.175H18.5309C19.1915 16.1756 19.8457 16.046 20.4561 15.7936C21.0665 15.5413 21.6212 15.1711 22.0885 14.7043C22.5558 14.2374 22.9265 13.683 23.1794 13.0729C23.4323 12.4627 23.5625 11.8086 23.5625 11.1481V5.0308ZM15.3337 8.39438L10.1312 11.2497C10.0835 11.2765 10.0292 11.2892 9.97448 11.2865C9.91981 11.2838 9.86701 11.2658 9.82214 11.2344C9.77728 11.203 9.74217 11.1597 9.72084 11.1093C9.6995 11.0588 9.69282 11.0034 9.70155 10.9494V5.08624C9.69319 5.03191 9.70039 4.97632 9.72232 4.92591C9.74424 4.8755 9.77999 4.83233 9.82543 4.80139C9.87087 4.77045 9.92414 4.75302 9.97908 4.7511C10.034 4.74917 10.0884 4.76285 10.1359 4.79053L15.3753 7.79373C15.4287 7.82634 15.4721 7.87298 15.5009 7.92857C15.5296 7.98416 15.5425 8.04657 15.5382 8.10899C15.5339 8.17142 15.5126 8.23147 15.4765 8.28261C15.4405 8.33374 15.3911 8.37401 15.3337 8.399V8.39438Z" fill="#FAFAFA"/>
</svg>
